<?xml version="1.0" encoding="UTF-8"?>
<svg id="Calque_2" data-name="Calque 2" xmlns="http://www.w3.org/2000/svg" viewBox="0 0 156.15 55.24">
  <defs>
    <style>
      .cls-1 {
        fill: #1d1d1b;
        stroke-width: 0px;
      }
    </style>
  </defs>
  <g id="Logos">
    <g>
      <g>
        <path class="cls-1" d="m20.31,19.17v1.1H4.8v.21c.13,3.78,2.38,6.2,5.57,6.2h.21c2.8,0,4.5-1.83,5.1-4.08h4.84c-.98,4.63-4.63,7.82-10.24,7.78-6.46-.04-10.28-4.46-10.28-11.09s4.12-11.18,10.24-11.18,10.07,4.21,10.07,11.05Zm-4.84-2.21c-.3-2.89-2.12-5.27-5.18-5.27h-.3c-3.02,0-4.76,2.46-5.06,5.27h10.54Z"/>
        <path class="cls-1" d="m23.84,2.8c0-1.57,1.32-2.8,2.93-2.8s2.8,1.23,2.8,2.8-1.23,2.85-2.8,2.85-2.93-1.27-2.93-2.85Zm.51,5.82h4.76v21.25h-4.76V8.63Z"/>
        <path class="cls-1" d="m48.32,29.87l-6.8-10.37-2.51,2.38v7.99h-4.76V.34h4.76v16.11l8.16-7.82h5.78l-8.24,7.78.77,1.02,8.46,12.45h-5.61Z"/>
        <path class="cls-1" d="m74.46,19.17c0,6.8-4.33,11.22-10.62,11.22s-10.58-4.42-10.58-11.22,4.25-11.05,10.58-11.05,10.62,4.25,10.62,11.05Zm-10.45,7.48c3.82,0,5.48-3.4,5.48-7.48s-1.7-7.31-5.48-7.31h-.38c-3.74,0-5.44,3.44-5.44,7.31s1.66,7.48,5.44,7.48h.38Z"/>
        <path class="cls-1" d="m77.86,8.63h4.84v.47c0,1.06-.17,1.53-.6,2.63l.64.17c.93-2.12,3.4-3.78,6.97-3.78s7.31,1.57,7.31,7.22v14.53h-4.76v-13.73c0-2.97-1.91-4.12-4.5-4.12h-.13c-2.68,0-5.01,1.66-5.01,4.63v13.22h-4.76V8.63Z"/>
      </g>
      <g>
        <path class="cls-1" d="m25.62,43.02h3.75v1h-4.95v-7.05h4.9v1h-3.7v1.98h3.37v.96h-3.37v2.11Zm2.66-7.64l-.86,1.1h-1.08l.63-1.1h1.31Z"/>
        <path class="cls-1" d="m36.49,41.62c-.12,1.25-1.05,2.52-3.03,2.52s-3.25-1.37-3.25-3.64,1.25-3.67,3.26-3.67c1.78,0,2.83,1.05,3.05,2.59h-1.22c-.19-.98-.82-1.59-1.79-1.59h-.11c-1.24,0-1.95,1.03-1.95,2.66s.71,2.66,1.95,2.66h.1c1.08,0,1.68-.77,1.77-1.54h1.22Z"/>
        <path class="cls-1" d="m44.16,40.49c0,2.18-1.23,3.67-3.34,3.67s-3.33-1.48-3.33-3.66,1.24-3.66,3.33-3.66,3.34,1.47,3.34,3.65Zm-3.29,2.67c1.3,0,2.04-1.05,2.04-2.66s-.73-2.66-2.03-2.66h-.1c-1.29,0-2.05,1.05-2.05,2.66s.74,2.66,2.04,2.66h.1Z"/>
        <path class="cls-1" d="m46.71,43.03h3.72v1h-4.92v-7.05h1.2v6.06Z"/>
        <path class="cls-1" d="m52.66,43.02h3.75v1h-4.95v-7.05h4.9v1h-3.7v1.98h3.37v.96h-3.37v2.11Z"/>
        <path class="cls-1" d="m60.69,36.97h2.92c1.53,0,2.5.69,2.5,2.14s-1.07,2.18-2.51,2.18h-1.71v2.73h-1.2v-7.05Zm2.95,3.36c.79,0,1.22-.39,1.22-1.2s-.42-1.18-1.22-1.18h-1.75v2.38h1.75Z"/>
        <path class="cls-1" d="m67.21,36.97h3.1c1.39,0,2.46.61,2.46,1.94,0,.94-.67,1.63-1.47,1.69v.15c.95.03,1.27.52,1.27,1.47,0,.81.15,1.35.42,1.76v.04h-1.32c-.17-.37-.28-.84-.28-1.55,0-.96-.37-1.27-1.22-1.27h-1.78v2.82h-1.19v-7.05Zm3.03,3.29c.8,0,1.27-.36,1.27-1.18s-.48-1.13-1.27-1.13h-1.85v2.31h1.85Z"/>
        <path class="cls-1" d="m80.56,40.49c0,2.18-1.23,3.67-3.34,3.67s-3.33-1.48-3.33-3.66,1.24-3.66,3.33-3.66,3.34,1.47,3.34,3.65Zm-3.29,2.67c1.3,0,2.04-1.05,2.04-2.66s-.73-2.66-2.03-2.66h-.1c-1.29,0-2.05,1.05-2.05,2.66s.74,2.66,2.04,2.66h.1Z"/>
        <path class="cls-1" d="m86.77,37.96h-3.66v1.98h3.3v.98h-3.3v3.1h-1.2v-7.05h4.86v1Z"/>
        <path class="cls-1" d="m89.02,43.02h3.75v1h-4.95v-7.05h4.9v1h-3.7v1.98h3.37v.96h-3.37v2.11Z"/>
        <path class="cls-1" d="m94.81,41.46c.01,1.19.82,1.71,1.73,1.71.74,0,1.55-.4,1.55-1.06,0-.81-.73-.95-1.31-1.08l-.96-.22c-1.25-.27-2.04-.91-2.04-1.93,0-1.39,1.2-2.04,2.67-2.04,1.69,0,2.79.98,2.91,2.35h-1.28c-.06-.79-.73-1.39-1.63-1.39-.72,0-1.41.32-1.41.97,0,.57.52.88,1.22,1.02l1.06.23c1.29.26,2.05.89,2.05,2.03,0,1.32-1.33,2.11-2.82,2.1-1.55-.01-2.96-.74-2.99-2.68h1.27Z"/>
        <path class="cls-1" d="m101.48,41.46c.01,1.19.82,1.71,1.73,1.71.74,0,1.55-.4,1.55-1.06,0-.81-.73-.95-1.31-1.08l-.96-.22c-1.25-.27-2.04-.91-2.04-1.93,0-1.39,1.2-2.04,2.67-2.04,1.69,0,2.79.98,2.91,2.35h-1.28c-.06-.79-.73-1.39-1.63-1.39-.72,0-1.41.32-1.41.97,0,.57.52.88,1.22,1.02l1.06.23c1.29.26,2.05.89,2.05,2.03,0,1.32-1.33,2.11-2.82,2.1-1.55-.01-2.96-.74-2.99-2.68h1.27Z"/>
        <path class="cls-1" d="m107.32,44.02v-7.05h1.2v7.05h-1.2Z"/>
        <path class="cls-1" d="m116.54,40.49c0,2.18-1.23,3.67-3.34,3.67s-3.33-1.48-3.33-3.66,1.24-3.66,3.33-3.66,3.34,1.47,3.34,3.65Zm-3.29,2.67c1.3,0,2.04-1.05,2.04-2.66s-.73-2.66-2.03-2.66h-.1c-1.29,0-2.05,1.05-2.05,2.66s.74,2.66,2.04,2.66h.1Z"/>
        <path class="cls-1" d="m117.89,36.97h1.25l2.57,3.89c.4.6.59.94.86,1.6l.15-.03c-.07-.38-.13-.86-.13-1.24v-4.22s1.17,0,1.17,0v7.05h-1.22l-2.73-4.15c-.38-.58-.55-.94-.74-1.43l-.14.03c.06.35.14.88.14,1.41v4.14h-1.18v-7.05Z"/>
        <path class="cls-1" d="m125.46,36.97h1.25l2.57,3.89c.4.6.59.94.86,1.6l.15-.03c-.07-.38-.13-.86-.13-1.24v-4.22s1.17,0,1.17,0v7.05h-1.22l-2.73-4.15c-.38-.58-.55-.94-.74-1.43l-.14.03c.06.35.14.88.14,1.41v4.14h-1.18v-7.05Z"/>
        <path class="cls-1" d="m134.22,43.02h3.75v1h-4.95v-7.05h4.9v1h-3.7v1.98h3.37v.96h-3.37v2.11Z"/>
        <path class="cls-1" d="m140.49,43.03h3.72v1h-4.92v-7.05h1.2v6.06Z"/>
        <path class="cls-1" d="m146.44,43.03h3.72v1h-4.92v-7.05h1.2v6.06Z"/>
        <path class="cls-1" d="m152.4,43.02h3.75v1h-4.95v-7.05h4.9v1h-3.7v1.98h3.37v.96h-3.37v2.11Z"/>
        <path class="cls-1" d="m25.62,53.62h3.75v1h-4.95v-7.05h4.9v1h-3.7v1.98h3.37v.96h-3.37v2.11Z"/>
        <path class="cls-1" d="m30.69,47.57h1.25l2.57,3.89c.4.6.59.94.86,1.6l.15-.03c-.07-.38-.13-.86-.13-1.24v-4.22s1.17,0,1.17,0v7.05h-1.22l-2.73-4.15c-.38-.58-.55-.94-.74-1.43l-.14.03c.06.35.14.88.14,1.41v4.14h-1.18v-7.05Z"/>
        <path class="cls-1" d="m45.95,54.62l-.72-1.87h-2.85l-.68,1.87h-1.24l2.56-7.05h1.46l2.74,7.05h-1.26Zm-3.29-2.79h2.27l-.83-2.17c-.13-.34-.21-.62-.28-.96h-.16c-.04.34-.13.62-.24.96l-.76,2.17Z"/>
        <path class="cls-1" d="m48.22,47.57h3.1c1.39,0,2.46.61,2.46,1.94,0,.94-.67,1.63-1.47,1.69v.15c.95.03,1.27.52,1.27,1.47,0,.81.15,1.35.42,1.76v.04h-1.32c-.17-.37-.28-.84-.28-1.55,0-.96-.37-1.27-1.22-1.27h-1.78v2.82h-1.19v-7.05Zm3.03,3.29c.8,0,1.27-.36,1.27-1.18s-.48-1.13-1.27-1.13h-1.85v2.31h1.85Z"/>
        <path class="cls-1" d="m60.43,47.57v1h-2.29v6.06h-1.2v-6.06h-2.31v-1h5.8Z"/>
        <path class="cls-1" d="m62.25,52.06c.01,1.19.82,1.71,1.73,1.71.74,0,1.55-.4,1.55-1.06,0-.81-.73-.95-1.31-1.08l-.96-.22c-1.25-.27-2.04-.91-2.04-1.93,0-1.39,1.2-2.04,2.67-2.04,1.69,0,2.79.98,2.91,2.35h-1.28c-.06-.79-.73-1.39-1.63-1.39-.72,0-1.41.32-1.41.97,0,.57.52.88,1.22,1.02l1.06.23c1.29.26,2.05.89,2.05,2.03,0,1.32-1.33,2.11-2.82,2.1-1.55-.01-2.96-.74-2.99-2.68h1.27Z"/>
        <path class="cls-1" d="m75.68,54.62l-.72-1.87h-2.85l-.68,1.87h-1.24l2.56-7.05h1.46l2.74,7.05h-1.26Zm-3.29-2.79h2.27l-.83-2.17c-.13-.34-.21-.62-.28-.96h-.16c-.04.34-.13.62-.24.96l-.76,2.17Z"/>
        <path class="cls-1" d="m77.95,47.57h2.92c1.53,0,2.5.69,2.5,2.14s-1.07,2.18-2.51,2.18h-1.71v2.73h-1.2v-7.05Zm2.95,3.36c.79,0,1.22-.39,1.22-1.2s-.42-1.18-1.22-1.18h-1.75v2.38h1.75Z"/>
        <path class="cls-1" d="m84.47,47.57h2.92c1.53,0,2.5.69,2.5,2.14s-1.07,2.18-2.51,2.18h-1.71v2.73h-1.2v-7.05Zm2.95,3.36c.8,0,1.22-.39,1.22-1.2s-.42-1.18-1.22-1.18h-1.75v2.38h1.75Z"/>
        <path class="cls-1" d="m92.19,53.63h3.72v1h-4.92v-7.05h1.2v6.06Z"/>
        <path class="cls-1" d="m96.94,54.62v-7.05h1.2v7.05h-1.2Z"/>
        <path class="cls-1" d="m105.32,53.71l.83.9-.67.64-.86-.94c-.5.3-1.09.46-1.79.46-2.1,0-3.33-1.48-3.33-3.66s1.24-3.66,3.33-3.66,3.34,1.47,3.34,3.65c0,1.07-.3,1.97-.85,2.62Zm-2.44.05c.38,0,.72-.09,1.01-.26l-1.51-1.64.68-.6,1.45,1.59c.27-.45.4-1.04.4-1.74,0-1.61-.73-2.66-2.03-2.66h-.1c-1.29,0-2.05,1.05-2.05,2.66s.74,2.66,2.04,2.66h.1Z"/>
        <path class="cls-1" d="m107.5,51.81v-4.24h1.21v4.27c0,1.23.62,1.91,1.6,1.91h.11c.99,0,1.58-.69,1.58-1.91v-4.27h1.2v4.24c0,1.8-.99,2.94-2.84,2.94s-2.85-1.13-2.85-2.94Z"/>
        <path class="cls-1" d="m116.07,53.62h3.75v1h-4.95v-7.05h4.9v1h-3.7v1.98h3.37v.96h-3.37v2.11Zm2.66-7.64l-.86,1.1h-1.08l.63-1.1h1.31Z"/>
        <path class="cls-1" d="m121.86,52.06c.01,1.19.82,1.71,1.73,1.71.74,0,1.55-.4,1.55-1.06,0-.81-.73-.95-1.31-1.08l-.96-.22c-1.25-.27-2.04-.91-2.04-1.93,0-1.39,1.2-2.04,2.67-2.04,1.69,0,2.79.98,2.91,2.35h-1.28c-.06-.79-.73-1.39-1.63-1.39-.72,0-1.41.32-1.41.97,0,.57.52.88,1.22,1.02l1.06.23c1.29.26,2.05.89,2.05,2.03,0,1.32-1.33,2.11-2.82,2.1-1.55-.01-2.96-.74-2.99-2.68h1.27Z"/>
      </g>
    </g>
  </g>
</svg>